<svg xmlns="http://www.w3.org/2000/svg" xmlns:xlink="http://www.w3.org/1999/xlink" viewBox="0,0,256,256" width="50px" height="50px" fill-rule="nonzero"><g fill="#ffffff" fill-rule="nonzero" stroke="none" stroke-width="1" stroke-linecap="butt" stroke-linejoin="miter" stroke-miterlimit="10" stroke-dasharray="" stroke-dashoffset="0" font-family="none" font-weight="none" font-size="none" text-anchor="none" style="mix-blend-mode: normal"><g transform="scale(5.12,5.12)"><path d="M25,6c-11.47371,0 -21,7.7136 -21,17.4375c0,6.17345 4.00526,11.89931 10.29883,15c0,0.00065 0,0.0013 0,0.00195c0.02267,0.01114 0.01789,-0.0079 0.00781,0.02344c-0.2806,0.87164 -1.22286,2.64816 -2.13086,3.9707c-0.24066,0.35085 -0.23299,0.81556 0.0191,1.15829c0.2521,0.34273 0.69343,0.48844 1.10004,0.3632c2.44148,-0.75221 4.97201,-2.14548 6.49219,-3.62695h0.00195c0.90948,0.1939 1.8353,0.3293 2.76563,0.41992c2.39135,2.01032 5.69312,3.24219 9.28711,3.24219c1.17146,0 2.34647,-0.13725 3.49609,-0.4043c1.04645,0.72939 2.18382,1.00393 3.23438,1.36133c0.40146,0.13778 0.84616,0.00715 1.10932,-0.32586c0.26316,-0.33302 0.28745,-0.79587 0.0606,-1.15461c-0.35809,-0.56923 -0.57256,-0.80864 -0.76953,-1.26758c3.67674,-2.00709 5.97461,-5.44139 5.97461,-9.20508c0,-1.03935 -0.18341,-2.03594 -0.5,-2.98242c0.99442,-2.0251 1.55273,-4.24826 1.55273,-6.57422c0,-9.7239 -9.52629,-17.4375 -21,-17.4375zM25,8c10.58229,0 19,7.0334 19,15.4375c0,1.45071 -0.26259,2.84704 -0.72656,4.17969c-2.26362,-3.37632 -6.58066,-5.61719 -11.43164,-5.61719c-7.12284,0 -13.10547,4.82627 -13.10547,10.99414c0,1.98644 0.62771,3.82988 1.70703,5.42188c-0.08162,-0.01647 -0.16478,-0.02755 -0.24609,-0.04492c-0.00195,-0.00066 -0.0039,-0.00131 -0.00586,-0.00195c-0.12707,-0.02616 -0.26386,-0.04297 -0.41016,-0.04297c-0.51642,0 -1.01544,0.20886 -1.38281,0.56641c-0.00065,0 -0.0013,0 -0.00195,0c-0.69515,0.67843 -1.89054,1.40188 -3.18164,2.05469c0.32817,-0.64231 0.82346,-1.33625 0.99609,-1.87305c0.30178,-0.94016 -0.14087,-1.99242 -1.0293,-2.42969c-5.72238,-2.81931 -9.18164,-7.90048 -9.18164,-13.20703c0,-8.4041 8.41771,-15.4375 19,-15.4375zM31.8418,24c6.22716,0 11.10547,4.14001 11.10547,8.99414c0,2.97553 -1.80154,5.77355 -4.98828,7.48828c-0.00065,0.00065 -0.0013,0.0013 -0.00195,0.00195c-0.63101,0.34047 -0.88302,1.01489 -0.88477,1.70508c-0.17607,-0.08716 -0.48006,-0.14857 -0.625,-0.25195c-0.00065,-0.00065 -0.0013,-0.0013 -0.00195,-0.00195c-0.31738,-0.22464 -0.70584,-0.35156 -1.09961,-0.35156c-0.14619,0 -0.29308,0.01726 -0.43555,0.05078c-1.00915,0.23646 -2.04165,0.35547 -3.06836,0.35547c-6.22716,0 -11.10547,-4.14196 -11.10547,-8.99609c0.00009,-4.85413 4.87831,-8.99414 11.10547,-8.99414zM26.70313,31.05664c-0.71546,-0.01466 -1.38293,0.35865 -1.74495,0.97592c-0.36203,0.61728 -0.36203,1.38205 0,1.99932c0.36203,0.61728 1.0295,0.99058 1.74495,0.97592c0.71546,0.01466 1.38293,-0.35865 1.74495,-0.97592c0.36203,-0.61728 0.36203,-1.38205 0,-1.99932c-0.36203,-0.61728 -1.0295,-0.99058 -1.74495,-0.97592zM32.23633,31.05664c-0.71546,-0.01466 -1.38293,0.35865 -1.74495,0.97592c-0.36203,0.61728 -0.36203,1.38205 0,1.99932c0.36203,0.61728 1.0295,0.99058 1.74495,0.97592c0.71546,0.01466 1.38293,-0.35865 1.74495,-0.97592c0.36203,-0.61728 0.36203,-1.38205 0,-1.99932c-0.36203,-0.61728 -1.0295,-0.99058 -1.74495,-0.97592zM37.76953,31.05664c-0.71546,-0.01466 -1.38293,0.35865 -1.74495,0.97592c-0.36203,0.61728 -0.36203,1.38205 0,1.99932c0.36203,0.61728 1.0295,0.99058 1.74495,0.97592c0.71546,0.01466 1.38293,-0.35865 1.74495,-0.97592c0.36203,-0.61728 0.36203,-1.38205 0,-1.99932c-0.36203,-0.61728 -1.0295,-0.99058 -1.74495,-0.97592z"></path></g></g></svg>